# xmcd
#
# Track frame offsets:
#	150
#	13773
#	23160
#	33653
#	44085
#	54410
#	63913
#	74367
#	86060
#	95519
#
# Disc length: 1443 seconds
#
# Revision: 1
# Processed by: cddbd v1.5.1PL2 Copyright (c) Steve Scherf et al.
# Submitted via: audiograbber 1.83.01
#
DISCID=8705a10a
DTITLE=The Stanley Brothers - Don't Cheat In Our Home Town
DYEAR=2003
DGENRE=Bluegrass
TTITLE0=(Dear Girl) Can You Forgive
TTITLE1=Drunkard's Dream
TTITLE2=I Just Came From Your Wedding
TTITLE3=I Just Stood There
TTITLE4=Pretty Little Miss In The Garden
TTITLE5=(It Was) Late Last Night
TTITLE6=Never Again
TTITLE7=Don't Cheat In Our Home Town
TTITLE8=Standing Room Only (Outside Your Heart)
TTITLE9=What A Price
EXTD=
EXTT0=
EXTT1=
EXTT2=
EXTT3=
EXTT4=
EXTT5=
EXTT6=
EXTT7=
EXTT8=
EXTT9=
PLAYORDER=
